<svg xmlns="http://www.w3.org/2000/svg" data-name="Layer 1" viewBox="0 100 750 425" x="0px" y="0px" fill="white"><path d="M361.14,237.43h0a19.59,19.59,0,0,1-3-23.88L375,185.23l16.84,28.32a19.59,19.59,0,0,1-3,23.88h0A19.61,19.61,0,0,1,361.14,237.43Zm0,25.14h0a19.59,19.59,0,0,0-3,23.88L375,314.77l16.84-28.32a19.59,19.59,0,0,0-3-23.88h0A19.61,19.61,0,0,0,361.14,262.57Zm-31-8.24h0a11.37,11.37,0,0,0-11,8.57l-4.71,18.53L333,276.72a11.37,11.37,0,0,0,8.57-11h0A11.37,11.37,0,0,0,330.16,254.33Zm78.31,11.37h0a11.37,11.37,0,0,0,8.57,11l18.53,4.71-4.71-18.53a11.37,11.37,0,0,0-11-8.57h0A11.37,11.37,0,0,0,408.47,265.7ZM40.55,262.81c16-10.73,29.43-13.2,39.67-12.89,23.11.72,28.74,15.62,48.29,11.76,4.17-.82,15.07-5.6,36.86-15.17,8.53-3.74,8-3.68,9.22-4,16.68-4.7,33.52,5,49.4,11.93,22.35,9.78,48.86,14.29,70.8,3.63,9.13-4.43,17.14-11.33,26.91-14.05a34.48,34.48,0,0,1,28.93,5.15,72.61,72.61,0,0,0-56.52-20c6.4,2.58,6.37,12.58,1.42,17.39s-12.43,5.69-19.33,5.92c-11.05.38-22.41-.29-32.51-4.76s-18.8-13.35-20.55-24.26c-2.65,6.62-11.09,9.11-18.11,7.87s-13.22-5.19-19.77-8a14.75,14.75,0,0,0-6.51-1.54c-2.88.16-5.44,1.79-7.89,3.32a219.11,219.11,0,0,1-45.71,21.72c-1.52.51-3.36,1-4.58-.08a4.69,4.69,0,0,1-1.21-3.34,144,144,0,0,1-.37-18,129.53,129.53,0,0,0-33.83,6.61,97.76,97.76,0,0,0-19.23,8.47A90.42,90.42,0,0,0,40.55,262.81Zm161.34-42.42a6.2,6.2,0,1,1,6.2,6.2A6.19,6.19,0,0,1,201.89,220.39Zm79.16,19.36a6.19,6.19,0,1,1,6.19,6.19A6.2,6.2,0,0,1,281.05,239.75Zm428.4,23.06c-16-10.73-29.43-13.2-39.67-12.89-23.11.72-28.74,15.62-48.29,11.76-4.17-.82-15.07-5.6-36.86-15.17-8.53-3.74-8-3.68-9.22-4-16.68-4.7-33.52,5-49.4,11.93-22.35,9.78-48.86,14.29-70.8,3.63-9.13-4.43-17.14-11.33-26.91-14.05a34.48,34.48,0,0,0-28.93,5.15,72.61,72.61,0,0,1,56.52-20c-6.4,2.58-6.37,12.58-1.42,17.39s12.43,5.69,19.33,5.92c11.05.38,22.41-.29,32.51-4.76s18.8-13.35,20.55-24.26c2.65,6.62,11.09,9.11,18.11,7.87s13.22-5.19,19.77-8a14.75,14.75,0,0,1,6.51-1.54c2.88.16,5.44,1.79,7.89,3.32a219.11,219.11,0,0,0,45.71,21.72c1.52.51,3.36,1,4.58-.08a4.69,4.69,0,0,0,1.21-3.34,144,144,0,0,0,.37-18,129.53,129.53,0,0,1,33.83,6.61,97.76,97.76,0,0,1,19.23,8.47A90.42,90.42,0,0,1,709.45,262.81ZM541.91,226.59a6.2,6.2,0,1,1,6.2-6.2A6.2,6.2,0,0,1,541.91,226.59Zm-79.15,19.35a6.2,6.2,0,1,1,6.19-6.19A6.19,6.19,0,0,1,462.76,245.94Z"/></svg>