<svg xmlns="http://www.w3.org/2000/svg" xmlns:xlink="http://www.w3.org/1999/xlink" version="1.1" x="0px" y="0px" viewBox="0 0 1000 1250" fill="white" style="enable-background:new 0 0 1000 1000;" xml:space="preserve"><g><path d="M572.3,478.8h-0.5c-26.6,0-52.8-6.2-76.6-18.1l-18-9l-18,9c-23.8,11.9-50,18.1-76.6,18.1H382c-1.5,0-2.7,1.2-2.7,2.7   c0,1.5,1.2,2.7,2.7,2.7h0.5c26.5,0,52.9,6.2,76.6,18.1l18,9l18-9c23.7-11.8,50.2-18.1,76.6-18.1h0.5c1.5,0,2.7-1.2,2.7-2.7   C575,480,573.8,478.8,572.3,478.8z"/><polygon points="582.9,481 611.6,495.2 640.2,481 611.6,466.7  "/><path d="M920.8,476.5H717.4c-14.5,0-28.9-3.4-41.9-9.8l0,0L646.8,481l28.7,14.2c13-6.5,27.4-9.8,41.9-9.8h203.1   c2.4,0,4.5-1.8,4.7-4.2C925.3,478.7,923.3,476.5,920.8,476.5z"/><polygon points="317.1,481 345.8,495.2 374.4,481 345.8,466.7  "/><path d="M239.1,476.5l-203.1,0c-2.4,0-4.5,1.8-4.7,4.2c-0.1,2.5,1.9,4.6,4.4,4.6l203.4,0c14.5,0,28.9,3.4,41.9,9.8l0,0l28.7-14.2   L281,466.7C268,473.2,253.6,476.5,239.1,476.5z"/></g></svg>